<svg width="50" height="50" viewBox="0 0 50 50" fill="none" xmlns="http://www.w3.org/2000/svg">
<path d="M25 50C11.1929 50 -6.03527e-07 38.8071 0 25C6.03529e-07 11.1929 11.1929 -6.03528e-07 25 0C38.8071 6.03528e-07 50 11.1929 50 25C50 38.8071 38.8071 50 25 50Z" fill="#FF7D06"/>
<path fill-rule="evenodd" clip-rule="evenodd" d="M36.6991 23.9816V25.0718C36.6976 27.627 35.8702 30.1133 34.3402 32.16C32.8103 34.2065 30.6597 35.7037 28.2093 36.4283C25.7588 37.1528 23.1399 37.0658 20.7429 36.1802C18.346 35.2947 16.2995 33.6581 14.9088 31.5144C13.518 29.3708 12.8574 26.835 13.0255 24.2853C13.1937 21.7355 14.1815 19.3085 15.8417 17.366C17.5019 15.4236 19.7456 14.0698 22.238 13.5067C24.7305 12.9435 27.3382 13.2012 29.6722 14.2412" fill="#FF7D06"/>
<path d="M27.7098 34.7388C29.796 34.1218 31.6271 32.8473 32.9295 31.105C34.2318 29.3628 34.9359 27.2467 34.9373 25.0718V23.9819C34.9373 23.0092 35.7263 22.2202 36.6991 22.2202C37.6718 22.2202 38.4608 23.0092 38.4608 23.9819V25.0728C38.4592 28.0078 37.5082 30.8635 35.7508 33.2144C33.9935 35.5651 31.5234 37.2854 28.7088 38.1177C25.8942 38.9498 22.8859 38.8497 20.1327 37.8325C17.3796 36.8154 15.029 34.9354 13.4315 32.4731C11.834 30.0109 11.0753 27.0981 11.2684 24.1694C11.4615 21.2407 12.5958 18.4524 14.5028 16.2212L14.868 15.811C16.7329 13.7995 19.1656 12.395 21.8495 11.7886C24.7124 11.1417 27.7085 11.4377 30.3895 12.6323C31.2778 13.0284 31.677 14.07 31.2811 14.9585C30.8851 15.8468 29.8434 16.246 28.9549 15.8501C26.9679 14.9648 24.7477 14.7457 22.6258 15.2251C20.504 15.7046 18.5938 16.8567 17.1805 18.5103C15.7671 20.1639 14.9262 22.2302 14.7831 24.4009C14.6399 26.5716 15.2025 28.7312 16.3866 30.5562C17.5706 32.381 19.3128 33.774 21.3534 34.5278L21.7381 34.6616C23.6721 35.2887 25.7539 35.317 27.7098 34.7388Z" fill="white"/>
<path fill-rule="evenodd" clip-rule="evenodd" d="M36.6988 16.77L24.8492 28.6314L21.2943 25.0765" fill="#FF7D06"/>
<path d="M35.4525 15.5248C36.14 14.8367 37.2555 14.8364 37.9437 15.5239C38.6319 16.2114 38.6322 17.3269 37.9447 18.0151L26.0951 29.8764C25.7649 30.2068 25.3171 30.3928 24.85 30.393C24.3827 30.3931 23.9343 30.2068 23.6039 29.8764L20.0492 26.3217C19.3614 25.6339 19.3614 24.5193 20.0492 23.8315C20.7371 23.1436 21.8516 23.1436 22.5394 23.8315L24.848 26.1391L35.4525 15.5248Z" fill="white"/>
</svg>
