<svg width="50" height="50" viewBox="0 0 50 50" fill="none" xmlns="http://www.w3.org/2000/svg">
<path d="M25 50C11.1929 50 -6.03528e-07 38.8071 0 25C6.03528e-07 11.1929 11.1929 -6.03528e-07 25 0C38.8071 6.03528e-07 50 11.1929 50 25C50 38.8071 38.8071 50 25 50Z" fill="#FF8300"/>
<path d="M35.0532 16.2153C35.053 15.549 34.5125 15.0093 33.8462 15.0093H15.6597C14.9935 15.0095 14.4538 15.5492 14.4536 16.2153V34.4019C14.4536 35.0682 14.9934 35.6087 15.6597 35.6089H33.8462C34.5127 35.6089 35.0532 35.0684 35.0532 34.4019V16.2153ZM37.8354 34.4019C37.8354 36.6051 36.0495 38.3911 33.8462 38.3911H15.6597C13.4566 38.3909 11.6704 36.605 11.6704 34.4019V16.2153C11.6706 14.0124 13.4567 12.2263 15.6597 12.2261H33.8462C36.0494 12.2261 37.8352 14.0123 37.8354 16.2153V34.4019Z" fill="white"/>
<path d="M11.6704 18.8137C11.6704 18.0453 12.2936 17.4221 13.062 17.4221C13.8304 17.4221 14.4536 18.0453 14.4536 18.8137C14.4536 20.1976 15.5756 21.3196 16.9595 21.3196C18.3432 21.3194 19.4644 20.1975 19.4644 18.8137C19.4644 18.0454 20.0876 17.4222 20.856 17.4221C21.6244 17.4221 22.2476 18.0453 22.2476 18.8137C22.2476 21.7343 19.88 24.1016 16.9595 24.1018C14.0388 24.1018 11.6704 21.7344 11.6704 18.8137Z" fill="white"/>
<path d="M19.4644 18.8137C19.4644 18.0454 20.0876 17.4222 20.856 17.4221C21.6244 17.4221 22.2476 18.0453 22.2476 18.8137C22.2476 20.1976 23.3695 21.3196 24.7534 21.3196C26.1371 21.3194 27.2583 20.1975 27.2583 18.8137C27.2583 18.0454 27.8816 17.4222 28.6499 17.4221C29.4183 17.4221 30.0415 18.0453 30.0415 18.8137C30.0415 21.7343 27.674 24.1016 24.7534 24.1018C21.8326 24.1018 19.4644 21.7344 19.4644 18.8137Z" fill="white"/>
<path d="M27.2583 18.8137C27.2583 18.0454 27.8816 17.4222 28.6499 17.4221C29.4183 17.4221 30.0415 18.0453 30.0415 18.8137C30.0415 20.1976 31.1637 21.3196 32.5477 21.3196C33.9314 21.3194 35.0526 20.1975 35.0526 18.8137C35.0526 18.0454 35.6758 17.4222 36.4442 17.4221C37.2125 17.4221 37.8358 18.0453 37.8358 18.8137C37.8358 21.7343 35.4682 24.1016 32.5477 24.1018C29.6269 24.1018 27.2583 21.7344 27.2583 18.8137Z" fill="white"/>
<path d="M30.0415 27.8143V36.9998H27.2583V30.5975H22.2475V36.9998H19.4643V27.8143H30.0415Z" fill="white"/>
<path d="M30.0416 14.267V19.4632H27.2584V14.267H30.0416Z" fill="white"/>
<path d="M22.2477 14.267V19.4632H19.4645V14.267H22.2477Z" fill="white"/>
</svg>
