<svg width="50" height="51" viewBox="0 0 50 51" fill="none" xmlns="http://www.w3.org/2000/svg">
<path d="M25 50.6103C11.1929 50.6103 -6.03527e-07 39.4175 0 25.6103C6.03529e-07 11.8032 11.1929 0.610351 25 0.610352C38.8071 0.610352 50 11.8032 50 25.6104C50 39.4175 38.8071 50.6103 25 50.6103Z" fill="#FF7D06"/>
<path fill-rule="evenodd" clip-rule="evenodd" d="M39.8428 14.0977C39.8343 14.3305 39.8275 15.14 39.8217 16.3383L37.6206 16.3835L37.6352 12.7394L33.2931 12.7258L33.2153 10.0691C35.1756 10.0706 36.6073 10.0826 37.0428 10.1124C39.2273 10.2627 39.9236 11.893 39.8428 14.0977ZM34.394 21.3252H29.4387L29.3378 15.6998L34.2571 15.7774L34.394 21.3252ZM32.7897 17.3531L31.0023 17.7087V19.131L32.7897 19.2196V17.3531ZM31.0848 26.8727L25.941 27.0248L26.1177 21.0487H28.0243L28.0708 24.2871L31.0369 24.121L31.0848 26.8727ZM26.0508 17.7957L26.0355 15.6478L27.9747 15.6783L27.9482 17.8718L26.0508 17.7957ZM28.2685 28.9098L28.3463 35.7564L25.8996 35.779L26.0548 29.0333L28.2685 28.9098ZM22.7426 15.5954L24.5898 15.6248L24.6547 21.8839L22.5239 21.9151L22.7426 15.5954ZM15.6205 21.9513L15.6987 15.4843L21.3333 15.5736L21.1057 21.9905L15.6205 21.9513ZM19.4467 17.3531L17.6586 17.7087V19.131L19.4467 19.2196V17.3531ZM12.0926 12.6599L12.0695 16.9078L9.64386 16.9575C9.65235 15.1385 9.66322 13.8631 9.68224 13.5161C9.81642 11.14 10.7152 10.0453 12.5709 10.129C12.9265 10.1448 14.3973 10.1448 16.446 10.1369L16.4188 12.6731L12.0926 12.6599ZM11.9479 38.8121L16.1396 38.8328L16.111 41.4776C14.4153 41.4685 13.1473 41.4542 12.6371 41.4312C10.292 41.3261 9.40744 39.668 9.46858 37.5676C9.4893 36.8511 9.50697 36.0254 9.52293 35.1221L11.9676 35.1733L11.9479 38.8121ZM15.5954 24.0321L17.8529 24.121L17.8057 27.2663L15.5553 27.3334L15.5954 24.0321ZM15.5285 29.6183L20.8978 29.3196V35.8246L15.4531 35.8744L15.5285 29.6183ZM17.2123 33.3607L18.9997 33.4492V31.5824L17.2123 31.938V33.3607ZM19.4355 27.2181L19.3526 24.2381L24.6503 24.434L24.5307 27.067L19.4355 27.2181ZM24.5905 29.1143L24.5911 35.7907L22.2365 35.8122L22.2378 29.2454L24.5905 29.1143ZM31.4343 31.5598L29.6677 31.4426V28.8318L31.4031 28.735L31.4343 31.5598ZM34.4426 23.2844L34.6192 30.4244L32.6569 30.3555L32.2662 23.1435L34.4426 23.2844ZM34.6773 32.7976L34.7489 35.6981L29.8701 35.7425L30.061 32.6868L34.6773 32.7976ZM37.5421 35.712L39.7732 35.7587C39.7691 36.8375 39.766 37.8015 39.7613 38.597C39.7487 40.7287 38.2877 41.6798 35.8278 41.5691C35.5088 41.5548 34.9174 41.5442 34.1328 41.5348L34.0563 38.921L37.5289 38.9379L37.5421 35.712Z" fill="white"/>
</svg>
