<svg width="79" height="79" viewBox="0 0 79 79" fill="none" xmlns="http://www.w3.org/2000/svg">
<path fill-rule="evenodd" clip-rule="evenodd" d="M29.4737 49.5251H49.5248V29.4734H29.4737V49.5251ZM22.3833 56.6166H56.6166V22.3833H22.3833V56.6166Z" fill="#FF8300"/>
<path fill-rule="evenodd" clip-rule="evenodd" d="M32.7295 46.2718H46.2723V32.729H32.7295V46.2718Z" fill="#3C3C3C"/>
<path fill-rule="evenodd" clip-rule="evenodd" d="M60.5667 18.4334H18.4334V60.5667H60.5667V18.4334ZM17.1167 17.1167V61.8834H61.8834V17.1167H17.1167Z" fill="#3C3C3C"/>
<path fill-rule="evenodd" clip-rule="evenodd" d="M28.3084 6.58325V18.4333H26.9917V6.58325H28.3084Z" fill="#3C3C3C"/>
<path d="M30.2833 5.26663C30.2833 6.72098 29.1043 7.89997 27.6499 7.89997C26.1955 7.89997 25.0166 6.72098 25.0166 5.26663C25.0166 3.81228 26.1955 2.6333 27.6499 2.6333C29.1043 2.6333 30.2833 3.81228 30.2833 5.26663Z" fill="#3C3C3C"/>
<path fill-rule="evenodd" clip-rule="evenodd" d="M27.6499 6.5833C28.3771 6.5833 28.9666 5.9938 28.9666 5.26663C28.9666 4.53947 28.3771 3.94997 27.6499 3.94997C26.9227 3.94997 26.3333 4.53947 26.3333 5.26663C26.3333 5.9938 26.9227 6.5833 27.6499 6.5833ZM27.6499 7.89997C29.1043 7.89997 30.2833 6.72098 30.2833 5.26663C30.2833 3.81228 29.1043 2.6333 27.6499 2.6333C26.1955 2.6333 25.0166 3.81228 25.0166 5.26663C25.0166 6.72098 26.1955 7.89997 27.6499 7.89997Z" fill="#3C3C3C"/>
<path fill-rule="evenodd" clip-rule="evenodd" d="M28.3084 72.4166V60.5667H26.9917V72.4166H28.3084Z" fill="#3C3C3C"/>
<path d="M30.2833 73.7334C30.2833 72.279 29.1043 71.1001 27.6499 71.1001C26.1955 71.1001 25.0166 72.279 25.0166 73.7334C25.0166 75.1878 26.1955 76.3668 27.6499 76.3668C29.1043 76.3668 30.2833 75.1878 30.2833 73.7334Z" fill="#3C3C3C"/>
<path fill-rule="evenodd" clip-rule="evenodd" d="M27.6499 72.4168C28.3771 72.4168 28.9666 73.0062 28.9666 73.7334C28.9666 74.4606 28.3771 75.0501 27.6499 75.0501C26.9227 75.0501 26.3333 74.4606 26.3333 73.7334C26.3333 73.0062 26.9227 72.4168 27.6499 72.4168ZM27.6499 71.1001C29.1043 71.1001 30.2833 72.279 30.2833 73.7334C30.2833 75.1878 29.1043 76.3668 27.6499 76.3668C26.1955 76.3668 25.0166 75.1878 25.0166 73.7334C25.0166 72.279 26.1955 71.1001 27.6499 71.1001Z" fill="#3C3C3C"/>
<path fill-rule="evenodd" clip-rule="evenodd" d="M72.4169 50.6917H60.5669V52.0083H72.4169V50.6917Z" fill="#3C3C3C"/>
<path d="M73.7334 48.7166C72.279 48.7166 71.1001 49.8955 71.1001 51.3499C71.1001 52.8043 72.279 53.9832 73.7334 53.9832C75.1878 53.9832 76.3668 52.8043 76.3668 51.3499C76.3668 49.8955 75.1878 48.7166 73.7334 48.7166Z" fill="#3C3C3C"/>
<path fill-rule="evenodd" clip-rule="evenodd" d="M72.4168 51.3499C72.4168 50.6227 73.0062 50.0332 73.7334 50.0332C74.4606 50.0332 75.0501 50.6227 75.0501 51.3499C75.0501 52.0771 74.4606 52.6666 73.7334 52.6666C73.0062 52.6666 72.4168 52.0771 72.4168 51.3499ZM71.1001 51.3499C71.1001 49.8955 72.279 48.7166 73.7334 48.7166C75.1878 48.7166 76.3668 49.8955 76.3668 51.3499C76.3668 52.8043 75.1878 53.9832 73.7334 53.9832C72.279 53.9832 71.1001 52.8043 71.1001 51.3499Z" fill="#3C3C3C"/>
<path fill-rule="evenodd" clip-rule="evenodd" d="M6.5835 50.6917H18.4335V52.0083H6.5835V50.6917Z" fill="#3C3C3C"/>
<path d="M5.26663 48.7166C6.72098 48.7166 7.89997 49.8955 7.89997 51.3499C7.89997 52.8043 6.72098 53.9832 5.26663 53.9832C3.81228 53.9832 2.6333 52.8043 2.6333 51.3499C2.6333 49.8955 3.81228 48.7166 5.26663 48.7166Z" fill="#3C3C3C"/>
<path fill-rule="evenodd" clip-rule="evenodd" d="M6.5833 51.3499C6.5833 50.6227 5.9938 50.0332 5.26663 50.0332C4.53947 50.0332 3.94997 50.6227 3.94997 51.3499C3.94997 52.0771 4.53947 52.6666 5.26663 52.6666C5.9938 52.6666 6.5833 52.0771 6.5833 51.3499ZM7.89997 51.3499C7.89997 49.8955 6.72098 48.7166 5.26663 48.7166C3.81228 48.7166 2.6333 49.8955 2.6333 51.3499C2.6333 52.8043 3.81228 53.9832 5.26663 53.9832C6.72098 53.9832 7.89997 52.8043 7.89997 51.3499Z" fill="#3C3C3C"/>
<path fill-rule="evenodd" clip-rule="evenodd" d="M40.1585 6.58325V18.4333H38.8418V6.58325H40.1585Z" fill="#3C3C3C"/>
<path d="M42.1334 5.26663C42.1334 6.72098 40.9544 7.89997 39.5 7.89997C38.0456 7.89997 36.8667 6.72098 36.8667 5.26663C36.8667 3.81228 38.0456 2.6333 39.5 2.6333C40.9544 2.6333 42.1334 3.81228 42.1334 5.26663Z" fill="#3C3C3C"/>
<path fill-rule="evenodd" clip-rule="evenodd" d="M39.5 6.5833C40.2272 6.5833 40.8167 5.9938 40.8167 5.26663C40.8167 4.53947 40.2272 3.94997 39.5 3.94997C38.7728 3.94997 38.1834 4.53947 38.1834 5.26663C38.1834 5.9938 38.7728 6.5833 39.5 6.5833ZM39.5 7.89997C40.9544 7.89997 42.1334 6.72098 42.1334 5.26663C42.1334 3.81228 40.9544 2.6333 39.5 2.6333C38.0456 2.6333 36.8667 3.81228 36.8667 5.26663C36.8667 6.72098 38.0456 7.89997 39.5 7.89997Z" fill="#3C3C3C"/>
<path fill-rule="evenodd" clip-rule="evenodd" d="M40.1585 72.4166V60.5667H38.8418V72.4166H40.1585Z" fill="#3C3C3C"/>
<path d="M42.1334 73.7334C42.1334 72.279 40.9544 71.1001 39.5 71.1001C38.0456 71.1001 36.8667 72.279 36.8667 73.7334C36.8667 75.1878 38.0456 76.3668 39.5 76.3668C40.9544 76.3668 42.1334 75.1878 42.1334 73.7334Z" fill="#3C3C3C"/>
<path fill-rule="evenodd" clip-rule="evenodd" d="M39.5 72.4168C40.2272 72.4168 40.8167 73.0062 40.8167 73.7334C40.8167 74.4606 40.2272 75.0501 39.5 75.0501C38.7728 75.0501 38.1834 74.4606 38.1834 73.7334C38.1834 73.0062 38.7728 72.4168 39.5 72.4168ZM39.5 71.1001C40.9544 71.1001 42.1334 72.279 42.1334 73.7334C42.1334 75.1878 40.9544 76.3668 39.5 76.3668C38.0456 76.3668 36.8667 75.1878 36.8667 73.7334C36.8667 72.279 38.0456 71.1001 39.5 71.1001Z" fill="#3C3C3C"/>
<path fill-rule="evenodd" clip-rule="evenodd" d="M72.4169 38.8416H60.5669V40.1582H72.4169V38.8416Z" fill="#3C3C3C"/>
<path d="M73.7334 36.8667C72.279 36.8667 71.1001 38.0456 71.1001 39.5C71.1001 40.9544 72.279 42.1334 73.7334 42.1334C75.1878 42.1334 76.3668 40.9544 76.3668 39.5C76.3668 38.0456 75.1878 36.8667 73.7334 36.8667Z" fill="#3C3C3C"/>
<path fill-rule="evenodd" clip-rule="evenodd" d="M72.4168 39.5C72.4168 38.7728 73.0062 38.1834 73.7334 38.1834C74.4606 38.1834 75.0501 38.7728 75.0501 39.5C75.0501 40.2272 74.4606 40.8167 73.7334 40.8167C73.0062 40.8167 72.4168 40.2272 72.4168 39.5ZM71.1001 39.5C71.1001 38.0456 72.279 36.8667 73.7334 36.8667C75.1878 36.8667 76.3668 38.0456 76.3668 39.5C76.3668 40.9544 75.1878 42.1334 73.7334 42.1334C72.279 42.1334 71.1001 40.9544 71.1001 39.5Z" fill="#3C3C3C"/>
<path fill-rule="evenodd" clip-rule="evenodd" d="M6.5835 38.8416H18.4335V40.1582H6.5835V38.8416Z" fill="#3C3C3C"/>
<path d="M5.26663 36.8667C6.72098 36.8667 7.89997 38.0456 7.89997 39.5C7.89997 40.9544 6.72098 42.1334 5.26663 42.1334C3.81228 42.1334 2.6333 40.9544 2.6333 39.5C2.6333 38.0456 3.81228 36.8667 5.26663 36.8667Z" fill="#3C3C3C"/>
<path fill-rule="evenodd" clip-rule="evenodd" d="M6.5833 39.5C6.5833 38.7728 5.9938 38.1834 5.26663 38.1834C4.53947 38.1834 3.94997 38.7728 3.94997 39.5C3.94997 40.2272 4.53947 40.8167 5.26663 40.8167C5.9938 40.8167 6.5833 40.2272 6.5833 39.5ZM7.89997 39.5C7.89997 38.0456 6.72098 36.8667 5.26663 36.8667C3.81228 36.8667 2.6333 38.0456 2.6333 39.5C2.6333 40.9544 3.81228 42.1334 5.26663 42.1334C6.72098 42.1334 7.89997 40.9544 7.89997 39.5Z" fill="#3C3C3C"/>
<path fill-rule="evenodd" clip-rule="evenodd" d="M52.0086 6.58325V18.4333H50.6919V6.58325H52.0086Z" fill="#3C3C3C"/>
<path d="M53.9835 5.26663C53.9835 6.72098 52.8045 7.89997 51.3501 7.89997C49.8957 7.89997 48.7168 6.72098 48.7168 5.26663C48.7168 3.81228 49.8957 2.6333 51.3501 2.6333C52.8045 2.6333 53.9835 3.81228 53.9835 5.26663Z" fill="#3C3C3C"/>
<path fill-rule="evenodd" clip-rule="evenodd" d="M51.3501 6.5833C52.0773 6.5833 52.6668 5.9938 52.6668 5.26663C52.6668 4.53947 52.0773 3.94997 51.3501 3.94997C50.6229 3.94997 50.0335 4.53947 50.0335 5.26663C50.0335 5.9938 50.6229 6.5833 51.3501 6.5833ZM51.3501 7.89997C52.8045 7.89997 53.9835 6.72098 53.9835 5.26663C53.9835 3.81228 52.8045 2.6333 51.3501 2.6333C49.8957 2.6333 48.7168 3.81228 48.7168 5.26663C48.7168 6.72098 49.8957 7.89997 51.3501 7.89997Z" fill="#3C3C3C"/>
<path fill-rule="evenodd" clip-rule="evenodd" d="M52.0086 72.4166V60.5667H50.6919V72.4166H52.0086Z" fill="#3C3C3C"/>
<path d="M53.9835 73.7334C53.9835 72.279 52.8045 71.1001 51.3501 71.1001C49.8957 71.1001 48.7168 72.279 48.7168 73.7334C48.7168 75.1878 49.8957 76.3668 51.3501 76.3668C52.8045 76.3668 53.9835 75.1878 53.9835 73.7334Z" fill="#3C3C3C"/>
<path fill-rule="evenodd" clip-rule="evenodd" d="M51.3501 72.4168C52.0773 72.4168 52.6668 73.0062 52.6668 73.7334C52.6668 74.4606 52.0773 75.0501 51.3501 75.0501C50.6229 75.0501 50.0335 74.4606 50.0335 73.7334C50.0335 73.0062 50.6229 72.4168 51.3501 72.4168ZM51.3501 71.1001C52.8045 71.1001 53.9835 72.279 53.9835 73.7334C53.9835 75.1878 52.8045 76.3668 51.3501 76.3668C49.8957 76.3668 48.7168 75.1878 48.7168 73.7334C48.7168 72.279 49.8957 71.1001 51.3501 71.1001Z" fill="#3C3C3C"/>
<path fill-rule="evenodd" clip-rule="evenodd" d="M72.4169 26.9917H60.5669V28.3084H72.4169V26.9917Z" fill="#3C3C3C"/>
<path d="M73.7334 25.0166C72.279 25.0166 71.1001 26.1955 71.1001 27.6499C71.1001 29.1043 72.279 30.2833 73.7334 30.2833C75.1878 30.2833 76.3668 29.1043 76.3668 27.6499C76.3668 26.1955 75.1878 25.0166 73.7334 25.0166Z" fill="#3C3C3C"/>
<path fill-rule="evenodd" clip-rule="evenodd" d="M72.4168 27.6499C72.4168 26.9227 73.0062 26.3333 73.7334 26.3333C74.4606 26.3333 75.0501 26.9227 75.0501 27.6499C75.0501 28.3771 74.4606 28.9666 73.7334 28.9666C73.0062 28.9666 72.4168 28.3771 72.4168 27.6499ZM71.1001 27.6499C71.1001 26.1955 72.279 25.0166 73.7334 25.0166C75.1878 25.0166 76.3668 26.1955 76.3668 27.6499C76.3668 29.1043 75.1878 30.2833 73.7334 30.2833C72.279 30.2833 71.1001 29.1043 71.1001 27.6499Z" fill="#3C3C3C"/>
<path fill-rule="evenodd" clip-rule="evenodd" d="M6.5835 26.9917H18.4335V28.3084H6.5835V26.9917Z" fill="#3C3C3C"/>
<path d="M5.26663 25.0166C6.72098 25.0166 7.89997 26.1955 7.89997 27.6499C7.89997 29.1043 6.72098 30.2833 5.26663 30.2833C3.81228 30.2833 2.6333 29.1043 2.6333 27.6499C2.6333 26.1955 3.81228 25.0166 5.26663 25.0166Z" fill="#3C3C3C"/>
<path fill-rule="evenodd" clip-rule="evenodd" d="M6.5833 27.6499C6.5833 26.9227 5.9938 26.3333 5.26663 26.3333C4.53947 26.3333 3.94997 26.9227 3.94997 27.6499C3.94997 28.3771 4.53947 28.9666 5.26663 28.9666C5.9938 28.9666 6.5833 28.3771 6.5833 27.6499ZM7.89997 27.6499C7.89997 26.1955 6.72098 25.0166 5.26663 25.0166C3.81228 25.0166 2.6333 26.1955 2.6333 27.6499C2.6333 29.1043 3.81228 30.2833 5.26663 30.2833C6.72098 30.2833 7.89997 29.1043 7.89997 27.6499Z" fill="#3C3C3C"/>
</svg>
