<svg width="50" height="50" viewBox="0 0 50 50" fill="none" xmlns="http://www.w3.org/2000/svg">
<path d="M25 50C11.1929 50 -6.03527e-07 38.8071 0 25C6.03529e-07 11.1929 11.1929 -6.03528e-07 25 0C38.8071 6.03528e-07 50 11.1929 50 25C50 38.8071 38.8071 50 25 50Z" fill="#FF7D06"/>
<path d="M32.7312 38.0414V35.7025C32.7312 34.89 32.4292 34.1085 31.8865 33.5092L31.7742 33.392C31.1615 32.7792 30.3304 32.435 29.4636 32.435H21.2791C20.4664 32.435 19.6851 32.7377 19.0857 33.2807L18.9685 33.392C18.3557 34.0047 18.0115 34.8359 18.0115 35.7025V38.0414C18.0113 38.8195 17.3804 39.4506 16.6023 39.4506C15.8242 39.4506 15.1933 38.8195 15.1931 38.0414V35.7025C15.1932 34.0885 15.834 32.5401 16.9753 31.3988C18.1167 30.2574 19.665 29.6166 21.2791 29.6166H29.4636C31.0774 29.6166 32.6251 30.2577 33.7664 31.3988C34.9078 32.5401 35.5495 34.0885 35.5496 35.7025V38.0414C35.5494 38.8195 34.9185 39.4506 34.1404 39.4506C33.3624 39.4505 32.7314 38.8194 32.7312 38.0414Z" fill="white"/>
<path d="M28.0544 21.6714C28.0544 19.8667 26.5915 18.4038 24.7868 18.4038C22.9822 18.4039 21.5193 19.8667 21.5193 21.6714C21.5193 23.4761 22.9822 24.9389 24.7868 24.939C26.5916 24.939 28.0544 23.4761 28.0544 21.6714ZM30.8728 21.6714C30.8728 25.0325 28.148 27.7573 24.7868 27.7573C21.4257 27.7572 18.7009 25.0325 18.7009 21.6714C18.701 18.3103 21.4258 15.5855 24.7868 15.5854C28.1479 15.5854 30.8727 18.3102 30.8728 21.6714Z" fill="white"/>
<path d="M31.5623 26.3485V20.5028C31.5623 16.7609 28.5288 13.7275 24.7869 13.7274C21.0449 13.7274 18.0115 16.7609 18.0115 20.5028V26.3485C18.0115 27.1268 17.3805 27.7577 16.6023 27.7577C15.8241 27.7577 15.1931 27.1268 15.1931 26.3485V20.5028C15.1931 15.2044 19.4885 10.9091 24.7869 10.9091C30.0853 10.9091 34.3806 15.2045 34.3806 20.5028V26.3485C34.3806 27.1267 33.7496 27.7577 32.9714 27.7577C32.1932 27.7577 31.5623 27.1268 31.5623 26.3485Z" fill="white"/>
<path d="M37.8884 25.1791C37.8884 26.603 36.7341 27.758 35.3103 27.7582L32.9714 27.7577C32.1932 27.7577 31.5623 27.1268 31.5623 26.3485C31.5623 25.5703 32.1932 24.9399 32.9714 24.9399H35.0701V20.7426H32.9714C32.1932 20.7426 31.5622 20.1116 31.5622 19.3334C31.5622 18.5552 32.1932 17.9242 32.9714 17.9242H35.3103C36.734 17.9245 37.8883 19.0787 37.8884 20.5024V25.1791Z" fill="white"/>
<path d="M16.6027 17.9242C17.3809 17.9243 18.0119 18.5553 18.0119 19.3334C18.0119 20.1116 17.3809 20.7425 16.6027 20.7426H14.5041V24.9399H16.6027C17.3809 24.94 18.0115 25.5704 18.0115 26.3485C18.0115 27.1268 17.3805 27.7577 16.6023 27.7577L14.2639 27.7582C12.8401 27.7581 11.6858 26.603 11.6858 25.1791V20.5024C11.6859 19.0786 12.8401 17.9244 14.2639 17.9242H16.6027Z" fill="white"/>
</svg>
